:SAMPLES-PER-SECOND 30
:FULLY-SPECIFIED
:DEGREES
32
root  34.8079321 36.50489867 -14.89656103 8.079224586 -5.58109951 3.692915201
lowerback  -7.445690155 -1.349609971 -0.6007595062
upperback  -4.249129772 -1.320870042 -3.117860079
thorax  -0.2742930055 -0.5051050186 -2.971479893
lowerneck  -4.960380077 -15.05389977 -12.4769001
upperneck  15.05510044 -20.71319771 11.08920097
head  7.930250168 -9.73707962 3.454639912
lclavicle  0 -4.497500157e-015 -2.743230041e-014
lhumerus  -49.74110031 29.32069969 63.11399841
lradius  0.001595117152 -6.507048965e-006 30.58580017
lwrist  4.824992743e-007 -3.790274832e-007 -27.94479942
lhand  -0 -36.97629929 -10.54440022
lfingers  90 7.125020027 -90
lthumb  94.82388072 -25.38001952 101.138634
rclavicle  0 -4.497500157e-015 -2.743230041e-014
rhumerus  -62.70880127 -26.55249977 -48.14410019
rradius  -5.16745672e-007 2.214343908e-008 75.09760284
rwrist  -0.0001011603963 -0.001600692281 -173.6809998
rhand  -1.766884001e-031 -2.216109991 -7.323999882
rfingers  -90 -7.125020027 -90
rthumb  -86.35573181 -8.329972505 -66.26843089
rfemur  -12.21697044 16.52137756 12.95377159
rtibia  -1.331084132 -0.9290624261 21.24044991
rfoot  0.1642434299 -21.8639431 -35.97169876
rtoes  4.056864323 19.60074395 -101.9377535
lfemur  -7.746781349 -16.96770859 -20.53755188
ltibia  2.384037733 -1.251630306 14.83669853
lfoot  0.7852232456 -23.0993576 37.81571579
ltoes  -8.727834413 -18.06571413 -116.3377047
33
root  34.80604577 36.50657774 -14.89858402 8.120419502 -5.627451897 3.699719429
lowerback  -7.418940544 -1.375800014 -0.6132651567
upperback  -4.224100113 -1.356770039 -3.137700081
thorax  -0.2651120126 -0.5237579942 -2.98713994
lowerneck  -4.850619793 -15.11789989 -12.42339993
upperneck  14.91530037 -20.81679726 11.14430046
head  7.878240108 -9.788229942 3.460370302
lclavicle  0 -4.497500157e-015 -2.743230041e-014
lhumerus  -49.77339935 29.34830093 63.01910019
lradius  0.001595117152 -6.507048965e-006 30.5882988
lwrist  4.824992743e-007 -3.790274832e-007 -27.97069931
lhand  -0 -36.94869995 -10.56719971
lfingers  90 7.125020027 -90
lthumb  94.81589148 -25.40335017 101.1112628
rclavicle  0 -4.497500157e-015 -2.743230041e-014
rhumerus  -63.02880096 -26.52059937 -47.35599899
rradius  -5.16745672e-007 2.214343908e-008 76.98930359
rwrist  -0.0001011603963 -0.001600692281 -173.4759979
rhand  -1.766621859e-031 -1.984290004 -7.286180019
rfingers  -90 -7.125020027 -90
rthumb  -86.29601227 -8.376451586 -66.04016796
rfemur  -12.30073452 16.55224419 12.93572617
rtibia  -1.349356771 -0.9340450764 21.29003525
rfoot  0.1392108351 -21.86541367 -35.97216034
rtoes  4.082399791 19.59564127 -102.0138829
lfemur  -7.808682919 -16.93239784 -20.5225811
ltibia  2.372609377 -1.246435404 14.85298157
lfoot  0.7991729379 -23.10930634 37.8450737
ltoes  -8.68954188 -18.08368659 -116.2142827
34
root  34.80650834 36.5067069 -14.90275466 8.126277924 -5.664153576 3.694907665
lowerback  -7.375929832 -1.392279983 -0.6661472321
upperback  -4.256919861 -1.374529958 -3.136709929
thorax  -0.3221859932 -0.5308229923 -2.956360102
lowerneck  -4.708640099 -15.19139957 -12.47560024
upperneck  14.85130024 -20.93040085 11.20180035
head  7.859099865 -9.847599983 3.479729891
lclavicle  0 -4.497500157e-015 -2.743230041e-014
lhumerus  -49.89899826 29.34830093 62.93650055
lradius  0.001595117152 -6.507048965e-006 30.6296978
lwrist  4.824992743e-007 -3.790274832e-007 -28.01989937
lhand  -4.417981087e-031 -36.94029999 -10.58710003
lfingers  90 7.125020027 -90
lthumb  94.81621618 -25.4231656 101.1041122
rclavicle  0 -4.497500157e-015 -2.743230041e-014
rhumerus  -63.45980072 -26.36849976 -46.50299454
rradius  -5.16745672e-007 2.214343908e-008 78.88249969
rwrist  -0.0001011603963 -0.001600692281 -173.852005
rhand  -1.766548279e-031 -1.914170027 -7.626080036
rfingers  -90 -7.125020027 -90
rthumb  -86.42234549 -8.069580557 -65.99186217
rfemur  -12.33137703 16.58502197 12.93585682
rtibia  -1.356127381 -0.9388536811 21.30847359
rfoot  0.1225999221 -21.87904549 -35.99304962
rtoes  4.074267502 19.59726997 -101.9896359
lfemur  -7.854289532 -16.90916252 -20.49681473
ltibia  2.341820002 -1.247952342 14.91010475
lfoot  0.8112701774 -23.13498497 37.8586235
ltoes  -8.658281333 -18.09828505 -116.1136133
35
root  34.80239327 36.50841 -14.90915404 8.170597076 -5.720809937 3.702757597
lowerback  -7.328809738 -1.389809966 -0.6609561443
upperback  -4.263879776 -1.373280048 -3.144119978
thorax  -0.3556889892 -0.5318167806 -2.965800047
lowerneck  -4.591050148 -15.27400017 -12.53240013
upperneck  14.80189991 -21.05780029 11.27320004
head  7.853000164 -9.911029816 3.499600172
lclavicle  0 -4.497500157e-015 -2.743230041e-014
lhumerus  -49.99240112 29.39690018 62.81560135
lradius  0.001595117152 -6.507048965e-006 30.61669922
lwrist  4.824992743e-007 -3.790274832e-007 -28.07889938
lhand  -0 -36.91109848 -10.63360023
lfingers  90 7.125020027 -90
lthumb  94.81244006 -25.46989261 101.0770517
rclavicle  0 -4.497500157e-015 -2.743230041e-014
rhumerus  -63.77080154 -26.22879982 -45.5768013
rradius  -5.16745672e-007 2.214343908e-008 80.43630219
rwrist  -0.0001011603963 -0.001600692281 -174.5160065
rhand  -1.766791629e-031 -2.137300014 -7.684050083
rfingers  -90 -7.125020027 -90
rthumb  -86.48752641 -8.004549636 -66.2124668
rfemur  -12.42974758 16.63876343 12.91882896
rtibia  -1.376521111 -0.9595236778 21.36629677
rfoot  0.0994963944 -21.91076088 -35.99001312
rtoes  4.091169883 19.59388102 -102.0400338
lfemur  -7.9545331 -16.95901871 -20.47204971
ltibia  2.305990458 -1.289338708 14.9832449
lfoot  0.8114717007 -23.0703907 37.8872757
ltoes  -8.676014735 -18.09001178 -116.1707111
36
root  34.79944665 36.50782427 -14.91518246 8.169960976 -5.786025524 3.719249487
lowerback  -7.357910633 -1.380380154 -0.6321070194
upperback  -4.256673813 -1.36145997 -3.15557003
thorax  -0.3334000111 -0.5300986767 -2.993819952
lowerneck  -4.523439884 -15.3664999 -12.57409954
upperneck  14.77369976 -21.19589806 11.32559967
head  7.860139847 -9.977820396 3.505530119
lclavicle  0 -4.497500157e-015 -2.743230041e-014
lhumerus  -50.00519943 29.38240051 62.78950119
lradius  0.001595117152 -6.507048965e-006 30.6093998
lwrist  4.824992743e-007 -3.790274832e-007 -28.05450058
lhand  -0 -36.90370178 -10.60690022
lfingers  90 7.125020027 -90
lthumb  94.8032965 -25.44379348 101.0667513
rclavicle  0 -4.497500157e-015 -2.743230041e-014
rhumerus  -63.99750137 -26.09720039 -44.64630127
rradius  -5.16745672e-007 2.214343908e-008 82.1332016
rwrist  -0.0001011603963 -0.001600692281 -174.6959991
rhand  -1.767200013e-031 -2.466710091 -7.658199787
rfingers  -90 -7.125020027 -90
rthumb  -86.5377246 -8.010581704 -66.53179902
rfemur  -12.46026802 16.6977272 12.90034866
rtibia  -1.388052225 -0.9661056399 21.40034676
rfoot  0.08479052037 -21.91849518 -35.99934769
rtoes  4.069473023 19.59822859 -101.9753417
lfemur  -7.970004082 -17.02699852 -20.48980141
ltibia  2.300389528 -1.351429105 15.00419044
lfoot  0.8100313544 -22.9466877 37.9460144
ltoes  -8.718322212 -18.07018792 -116.3070345
